<?xml version="1.0" standalone="no"?>
<!DOCTYPE svg PUBLIC "-//W3C//DTD SVG 20010904//EN"
 "http://www.w3.org/TR/2001/REC-SVG-20010904/DTD/svg10.dtd">
<svg version="1.0" xmlns="http://www.w3.org/2000/svg"
 width="1460.000000pt" height="1460.000000pt" viewBox="0 0 1460.000000 1460.000000"
 preserveAspectRatio="xMidYMid meet">
<metadata>
Created by potrace 1.11, written by Peter Selinger 2001-2013
</metadata>
<g transform="translate(0.000000,1460.000000) scale(0.100000,-0.100000)"
fill="#000000" stroke="none">
<path d="M0 7300 l0 -7300 7300 0 7300 0 0 7300 0 7300 -7300 0 -7300 0 0
-7300z m8760 2682 c199 -75 235 -91 234 -107 -1 -22 -2150 -5335 -2162 -5346
-4 -4 -121 34 -260 84 -215 78 -252 94 -248 110 2 9 489 1219 1083 2687 980
2427 1080 2670 1098 2665 11 -3 126 -44 255 -93z m700 0 c199 -75 235 -91 234
-107 -1 -22 -2150 -5335 -2162 -5346 -4 -4 -121 34 -260 84 -215 78 -252 94
-248 110 2 9 489 1219 1083 2687 980 2427 1080 2670 1098 2665 11 -3 126 -44
255 -93z m-6460 -44 c439 -68 699 -184 951 -426 314 -301 461 -603 553 -1142
117 -677 97 -1569 -49 -2227 -35 -158 -123 -419 -185 -551 -269 -570 -736
-886 -1404 -951 -69 -7 -487 -11 -1138 -11 l-1028 0 0 2665 0 2666 1098 -4
c946 -3 1111 -6 1202 -19z m8055 -2383 l611 -2400 212 -3 c167 -2 214 0 217
11 3 7 279 1087 614 2400 334 1313 610 2390 613 2392 3 3 142 4 310 3 l305 -3
-696 -2663 -696 -2662 -665 2 -664 3 -672 2570 c-370 1414 -684 2612 -697
2663 l-25 92 311 -2 310 -3 612 -2400z m-5195 -5 l0 -440 -320 0 -320 0 0 433
c0 239 3 437 7 440 3 4 147 7 320 7 l313 0 0 -440z m0 -2480 l0 -440 -320 0
-320 0 0 433 c0 239 3 437 7 440 3 4 147 7 320 7 l313 0 0 -440z"/>
<path d="M1300 7289 l0 -2141 733 5 c628 4 744 7 817 21 243 48 407 128 563
276 311 294 470 723 539 1455 18 201 15 764 -6 975 -68 682 -241 1089 -567
1331 -81 60 -247 140 -349 168 -175 48 -228 51 -1002 51 l-728 0 0 -2141z"/>
</g>
</svg>
